<svg width="2157" height="1670" viewBox="0 0 2157 1670" fill="none" xmlns="http://www.w3.org/2000/svg">
<rect y="0.216919" width="1904" height="1664.78" rx="394" fill="#6E6E6E"/>
<path d="M1470.07 516.202V466.829L1458.25 491.863L1470.07 516.202Z" fill="#101010"/>
<g filter="url(#filter0_d_4_57)">
<path d="M1706.58 919.533C1706.58 1067.6 1609.9 1169.95 1510.4 1169.95C1410.91 1169.95 1314.23 1067.6 1314.23 919.533C1314.23 771.463 1410.91 669.121 1510.4 669.121C1609.9 669.121 1706.58 771.463 1706.58 919.533Z" stroke="#1E1E1E" stroke-width="100" shape-rendering="crispEdges"/>
</g>
<g filter="url(#filter1_b_4_57)">
<path fill-rule="evenodd" clip-rule="evenodd" d="M1470.07 463.352H356.044V1342.34C356.044 1419.15 605.427 1481.41 913.058 1481.41C1220.69 1481.41 1470.07 1419.15 1470.07 1342.34V463.352Z" fill="#1E1E1E"/>
</g>
<g filter="url(#filter2_d_4_57)">
<ellipse cx="913.753" cy="491.863" rx="541.02" ry="124.476" fill="#38240C"/>
</g>
<mask id="path-6-inside-1_4_57" fill="white">
<path fill-rule="evenodd" clip-rule="evenodd" d="M1458.36 491.863C1466.04 482.661 1470.07 473.124 1470.07 463.352C1470.07 386.541 1220.69 324.272 913.058 324.272C605.427 324.272 356.044 386.541 356.044 463.352C356.044 473.124 360.08 482.661 367.759 491.863C360.08 501.066 356.044 510.603 356.044 520.375C356.044 597.186 605.427 659.454 913.058 659.454C1220.69 659.454 1470.07 597.186 1470.07 520.375C1470.07 510.603 1466.04 501.066 1458.36 491.863ZM1458.36 491.863C1405.68 428.728 1181.55 381.295 913.058 381.295C644.564 381.295 420.439 428.728 367.759 491.863C420.439 554.999 644.564 602.432 913.058 602.432C1181.55 602.432 1405.68 554.999 1458.36 491.863Z"/>
</mask>
<path fill-rule="evenodd" clip-rule="evenodd" d="M1458.36 491.863C1466.04 482.661 1470.07 473.124 1470.07 463.352C1470.07 386.541 1220.69 324.272 913.058 324.272C605.427 324.272 356.044 386.541 356.044 463.352C356.044 473.124 360.08 482.661 367.759 491.863C360.08 501.066 356.044 510.603 356.044 520.375C356.044 597.186 605.427 659.454 913.058 659.454C1220.69 659.454 1470.07 597.186 1470.07 520.375C1470.07 510.603 1466.04 501.066 1458.36 491.863ZM1458.36 491.863C1405.68 428.728 1181.55 381.295 913.058 381.295C644.564 381.295 420.439 428.728 367.759 491.863C420.439 554.999 644.564 602.432 913.058 602.432C1181.55 602.432 1405.68 554.999 1458.36 491.863Z" fill="#1E1E1E"/>
<path d="M1469.07 463.352C1469.07 472.83 1465.16 482.148 1457.59 491.223L1459.12 492.504C1466.91 483.173 1471.07 473.418 1471.07 463.352H1469.07ZM913.058 325.272C1066.82 325.272 1205.98 340.835 1306.68 365.978C1357.04 378.552 1397.72 393.508 1425.79 410.077C1453.93 426.686 1469.07 444.722 1469.07 463.352H1471.07C1471.07 443.577 1455.04 425.024 1426.81 408.355C1398.5 391.646 1357.61 376.633 1307.17 364.038C1206.27 338.844 1066.93 323.272 913.058 323.272V325.272ZM357.044 463.352C357.044 444.722 372.19 426.686 400.325 410.077C428.393 393.508 469.074 378.552 519.432 365.978C620.131 340.835 759.3 325.272 913.058 325.272V323.272C759.185 323.272 619.847 338.844 518.947 364.038C468.505 376.633 427.613 391.646 399.308 408.355C371.071 425.024 355.044 443.577 355.044 463.352H357.044ZM368.527 491.223C360.955 482.148 357.044 472.83 357.044 463.352H355.044C355.044 473.418 359.205 483.173 366.991 492.504L368.527 491.223ZM357.044 520.375C357.044 510.897 360.955 501.579 368.527 492.504L366.991 491.223C359.205 500.554 355.044 510.309 355.044 520.375H357.044ZM913.058 658.454C759.3 658.454 620.131 642.892 519.432 617.749C469.074 605.175 428.393 590.219 400.325 573.65C372.19 557.041 357.044 539.005 357.044 520.375H355.044C355.044 540.15 371.071 558.702 399.308 575.372C427.613 592.081 468.505 607.094 518.947 619.689C619.847 644.883 759.185 660.454 913.058 660.454V658.454ZM1469.07 520.375C1469.07 539.005 1453.93 557.041 1425.79 573.65C1397.72 590.219 1357.04 605.175 1306.68 617.749C1205.98 642.892 1066.82 658.454 913.058 658.454V660.454C1066.93 660.454 1206.27 644.883 1307.17 619.689C1357.61 607.094 1398.5 592.081 1426.81 575.372C1455.04 558.702 1471.07 540.15 1471.07 520.375H1469.07ZM1457.59 492.504C1465.16 501.579 1469.07 510.897 1469.07 520.375H1471.07C1471.07 510.309 1466.91 500.554 1459.12 491.223L1457.59 492.504ZM913.058 382.295C1047.25 382.295 1170.34 394.149 1266.44 413.883C1314.49 423.75 1355.77 435.583 1388.31 448.877C1420.88 462.183 1444.58 476.91 1457.59 492.504L1459.12 491.223C1445.8 475.249 1421.73 460.371 1389.06 447.026C1356.37 433.67 1314.97 421.807 1266.84 411.924C1170.58 392.157 1047.36 380.295 913.058 380.295V382.295ZM368.527 492.504C381.539 476.91 405.24 462.183 437.808 448.877C470.348 435.583 511.629 423.75 559.679 413.883C655.778 394.149 778.864 382.295 913.058 382.295V380.295C778.758 380.295 655.534 392.157 559.277 411.924C511.15 421.807 469.741 433.67 437.051 447.026C404.388 460.371 380.319 475.249 366.991 491.223L368.527 492.504ZM913.058 601.432C778.864 601.432 655.778 589.578 559.679 569.844C511.629 559.977 470.348 548.144 437.808 534.849C405.24 521.544 381.539 506.817 368.527 491.223L366.991 492.504C380.319 508.478 404.388 523.356 437.051 536.701C469.741 550.057 511.15 561.92 559.277 571.803C655.534 591.569 778.758 603.432 913.058 603.432V601.432ZM1457.59 491.223C1444.58 506.817 1420.88 521.544 1388.31 534.849C1355.77 548.144 1314.49 559.977 1266.44 569.844C1170.34 589.578 1047.25 601.432 913.058 601.432V603.432C1047.36 603.432 1170.58 591.569 1266.84 571.803C1314.97 561.92 1356.37 550.057 1389.06 536.701C1421.73 523.356 1445.8 508.478 1459.12 492.504L1457.59 491.223Z" fill="#1E1E1E" fill-opacity="0.39" mask="url(#path-6-inside-1_4_57)"/>
<path d="M356.044 521.07V463.352L367.866 491.863L356.044 521.07Z" fill="#1E1E1E"/>
<path d="M1195.26 399.866C1173.24 411.499 1222.8 482.271 1250.33 516.202L1195.26 516.202C1167.73 491.965 1112.67 434.766 1112.67 399.865C1112.67 356.238 1167.73 327.154 1195.26 312.612C1217.29 300.979 1167.73 239.902 1140.2 210.818C1103.5 162.345 1063.12 91.5732 1195.26 196.276C1222.8 225.36 1250.33 268.987 1250.33 312.613C1241.15 336.85 1217.29 388.232 1195.26 399.866Z" fill="#D9D9D9" fill-opacity="0.75"/>
<path d="M894.942 408.883C918.016 425.317 866.101 525.292 837.259 573.225L894.942 573.224C923.784 538.986 981.467 458.185 981.467 408.882C981.467 347.254 923.784 306.168 894.942 285.626C871.869 269.191 923.784 182.913 952.626 141.828C991.081 73.3518 1033.38 -26.6228 894.942 121.285C866.101 162.37 837.259 223.999 837.259 285.627C846.873 319.865 871.869 392.449 894.942 408.883Z" fill="#D9D9D9" fill-opacity="0.75"/>
<path d="M672.348 390.351C652.002 402.936 697.781 479.496 723.214 516.202L672.348 516.201C646.915 489.982 596.049 428.106 596.049 390.35C596.049 343.156 646.915 311.693 672.348 295.962C692.694 283.377 646.915 217.305 621.482 185.843C587.571 133.405 550.27 56.8452 672.348 170.111C697.781 201.574 723.214 248.768 723.214 295.963C714.736 322.182 692.694 377.766 672.348 390.351Z" fill="#D9D9D9" fill-opacity="0.75"/>
<path d="M1454.41 487.555C1454.49 487.59 1454.55 487.648 1454.62 487.697C1454.64 487.712 1454.66 487.724 1454.68 487.74C1454.7 487.75 1454.72 487.758 1454.73 487.768C1454.74 487.777 1454.76 487.787 1454.76 487.802C1454.76 487.916 1454.74 488.03 1454.73 488.143C1454.73 488.234 1454.72 488.327 1454.73 488.417C1454.74 488.517 1454.77 488.614 1454.78 488.715C1454.79 488.859 1454.78 489.005 1454.78 489.15C1454.78 489.239 1454.78 489.329 1454.78 489.418C1454.78 489.445 1454.77 489.471 1454.77 489.497C1454.76 489.506 1454.74 489.494 1454.74 489.504C1454.74 489.52 1454.74 489.542 1454.74 489.559C1454.74 489.601 1454.74 489.643 1454.73 489.685C1454.71 489.826 1454.71 489.971 1454.7 490.112C1454.69 490.173 1454.69 490.234 1454.69 490.296C1454.69 490.442 1454.73 490.581 1454.77 490.721C1454.8 490.833 1454.82 491.184 1454.81 491.068C1454.8 491.014 1454.79 490.96 1454.78 490.906C1454.74 490.72 1454.71 490.532 1454.69 490.345C1454.65 490.077 1454.64 489.807 1454.64 489.537C1454.64 489.505 1454.64 489.473 1454.64 489.441C1454.64 489.439 1454.64 489.436 1454.64 489.433C1454.64 489.423 1454.64 489.453 1454.64 489.463C1454.63 489.564 1454.62 489.664 1454.62 489.767C1454.61 489.945 1454.61 490.126 1454.62 490.304C1454.64 490.51 1454.71 490.708 1454.78 490.902C1454.79 490.956 1454.81 491.011 1454.83 491.064C1454.83 491.083 1454.85 491.056 1454.85 491.094C1454.84 491.143 1454.82 491.188 1454.81 491.236C1454.81 491.242 1454.8 491.293 1454.8 491.271C1454.8 491.12 1454.8 490.969 1454.82 490.82C1454.84 490.719 1454.86 490.621 1454.89 490.523C1454.91 490.475 1454.92 490.433 1454.93 490.385C1454.94 490.354 1454.96 490.3 1454.95 490.265C1454.94 490.252 1454.93 490.229 1454.92 490.22C1454.89 490.175 1454.86 490.128 1454.83 490.081C1454.72 489.886 1454.63 489.674 1454.56 489.456C1454.51 489.284 1454.5 489.096 1454.5 488.918C1454.5 488.916 1454.49 488.884 1454.5 488.893C1454.52 488.957 1454.55 489.015 1454.58 489.074C1454.64 489.203 1454.71 489.336 1454.79 489.458C1454.81 489.49 1454.83 489.523 1454.85 489.554C1454.86 489.573 1454.87 489.569 1454.87 489.594C1454.87 489.778 1454.88 489.964 1454.86 490.147C1454.86 490.178 1454.86 490.219 1454.85 490.247C1454.85 490.25 1454.84 490.255 1454.84 490.253C1454.82 490.245 1454.81 490.215 1454.8 490.203C1454.76 490.121 1454.74 490.032 1454.71 489.944C1454.68 489.836 1454.65 489.726 1454.63 489.615C1454.63 489.61 1454.63 489.596 1454.63 489.601C1454.63 489.626 1454.63 489.654 1454.63 489.679C1454.65 489.947 1454.68 490.212 1454.74 490.474C1454.75 490.485 1454.75 490.52 1454.76 490.528C1454.76 490.531 1454.76 490.517 1454.76 490.511C1454.76 490.455 1454.77 490.397 1454.76 490.342C1454.76 490.305 1454.76 490.291 1454.74 490.264C1454.69 490.204 1454.63 490.153 1454.58 490.093C1454.49 489.982 1454.41 489.86 1454.33 489.738C1454.2 489.533 1454.13 489.316 1454.07 489.082C1454.05 489.012 1454 488.804 1454.03 488.87C1454.11 489.038 1454.21 489.192 1454.31 489.346C1454.52 489.649 1454.74 489.954 1455.02 490.194C1455.06 490.225 1455.1 490.262 1455.14 490.277C1455.15 490.281 1455.19 490.293 1455.18 490.265C1455.17 490.23 1455.1 490.125 1455.1 490.115C1454.97 489.898 1454.84 489.682 1454.72 489.459C1454.59 489.225 1454.48 488.982 1454.39 488.732C1454.34 488.611 1454.29 488.481 1454.27 488.352C1454.27 488.3 1454.3 488.454 1454.32 488.503C1454.38 488.668 1454.45 488.826 1454.52 488.986C1454.59 489.147 1454.64 489.326 1454.75 489.47C1454.77 489.5 1454.79 489.528 1454.82 489.559C1454.82 489.568 1454.85 489.602 1454.83 489.568C1454.73 489.382 1454.61 489.206 1454.5 489.019C1454.39 488.818 1454.28 488.614 1454.19 488.403C1454.17 488.351 1454.15 488.298 1454.13 488.245C1454.09 488.16 1454.2 488.411 1454.25 488.492C1454.31 488.617 1454.38 488.748 1454.47 488.861C1454.49 488.883 1454.47 488.849 1454.47 488.841C1454.43 488.724 1454.38 488.607 1454.33 488.493C1454.32 488.458 1454.3 488.424 1454.29 488.388C1454.28 488.366 1454.31 488.426 1454.32 488.446C1454.38 488.546 1454.43 488.651 1454.49 488.753C1454.55 488.87 1454.62 488.985 1454.68 489.101C1454.7 489.139 1454.72 489.178 1454.74 489.213C1454.75 489.22 1454.76 489.239 1454.76 489.231C1454.75 489.201 1454.73 489.16 1454.72 489.135C1454.57 488.856 1454.42 488.587 1454.27 488.308C1454.26 488.292 1454.25 488.243 1454.25 488.26C1454.27 488.325 1454.3 488.388 1454.33 488.449C1454.38 488.535 1454.43 488.619 1454.48 488.701C1454.5 488.724 1454.52 488.774 1454.54 488.789C1454.54 488.791 1454.53 488.733 1454.53 488.729C1454.52 488.667 1454.5 488.604 1454.48 488.542C1454.47 488.501 1454.46 488.459 1454.44 488.419C1454.44 488.407 1454.42 488.379 1454.43 488.384C1454.45 488.39 1454.47 488.454 1454.48 488.459C1454.56 488.602 1454.63 488.746 1454.7 488.895C1454.71 488.915 1454.72 488.937 1454.73 488.957C1454.75 488.992 1454.69 488.888 1454.67 488.854C1454.65 488.814 1454.63 488.771 1454.6 488.733C1454.6 488.73 1454.57 488.691 1454.57 488.689C1454.57 488.689 1454.67 488.818 1454.69 488.836C1454.72 488.883 1454.63 488.737 1454.6 488.685C1454.59 488.658 1454.58 488.631 1454.56 488.605C1454.56 488.595 1454.55 488.584 1454.57 488.595C1454.58 488.606 1454.59 488.624 1454.61 488.632C1454.63 488.64 1454.61 488.532 1454.61 488.529C1454.59 488.445 1454.56 488.364 1454.54 488.282C1454.53 488.265 1454.55 488.317 1454.55 488.334C1454.58 488.406 1454.61 488.478 1454.64 488.548C1454.66 488.581 1454.67 488.614 1454.68 488.648C1454.7 488.682 1454.69 488.654 1454.69 488.634C1454.63 488.473 1454.56 488.314 1454.5 488.151C1454.5 488.137 1454.49 488.096 1454.49 488.11C1454.51 488.201 1454.56 488.292 1454.6 488.376C1454.65 488.465 1454.69 488.552 1454.72 488.644C1454.75 488.725 1454.64 488.489 1454.6 488.413C1454.6 488.404 1454.56 488.335 1454.56 488.346C1454.56 488.359 1454.58 488.396 1454.58 488.383C1454.58 488.355 1454.56 488.325 1454.55 488.299C1454.53 488.25 1454.51 488.201 1454.5 488.151C1454.49 488.124 1454.46 488.075 1454.47 488.045C1454.47 488.04 1454.47 488.049 1454.47 488.05C1454.49 488.077 1454.5 488.106 1454.51 488.134C1454.54 488.188 1454.56 488.241 1454.59 488.294C1454.6 488.307 1454.6 488.32 1454.61 488.334C1454.63 488.379 1454.58 488.241 1454.56 488.196C1454.53 488.119 1454.5 488.043 1454.48 487.966C1454.46 487.922 1454.45 487.876 1454.43 487.835C1454.41 487.781 1454.47 487.947 1454.48 488.004C1454.51 488.073 1454.53 488.14 1454.56 488.207C1454.57 488.222 1454.58 488.237 1454.58 488.252C1454.59 488.265 1454.57 488.225 1454.57 488.211C1454.54 488.13 1454.5 488.045 1454.48 487.958C1454.48 487.942 1454.48 487.954 1454.49 487.963C1454.51 488.006 1454.54 488.047 1454.56 488.088C1454.59 488.129 1454.62 488.169 1454.65 488.209C1454.66 488.225 1454.68 488.277 1454.68 488.258C1454.68 488.234 1454.64 488.175 1454.63 488.155C1454.6 488.092 1454.57 488.028 1454.54 487.962C1454.53 487.929 1454.5 487.828 1454.5 487.863C1454.5 487.877 1454.52 487.916 1454.52 487.902C1454.52 487.884 1454.51 487.864 1454.5 487.847C1454.48 487.77 1454.46 487.691 1454.45 487.612C1454.44 487.561 1454.43 487.403 1454.43 487.456C1454.43 487.473 1454.43 487.49 1454.43 487.506C1454.43 487.609 1454.49 487.715 1454.52 487.808C1454.54 487.87 1454.57 487.932 1454.59 487.993C1454.6 488.012 1454.61 488.041 1454.62 488.057C1454.64 488.077 1454.61 488.007 1454.6 487.983C1454.58 487.949 1454.59 487.912 1454.57 487.876C1454.56 487.837 1454.55 487.798 1454.54 487.758C1454.54 487.734 1454.52 487.663 1454.52 487.687C1454.52 487.739 1454.55 487.798 1454.57 487.846C1454.58 487.878 1454.6 487.903 1454.61 487.934C1454.64 488.003 1454.67 488.08 1454.71 488.143C1454.73 488.173 1454.69 488.101 1454.68 488.094C1454.66 488.048 1454.64 488.008 1454.63 487.957C1454.62 487.94 1454.61 487.925 1454.61 487.908C1454.61 487.894 1454.59 487.859 1454.6 487.867C1454.63 487.889 1454.65 487.948 1454.66 487.978C1454.69 488.02 1454.71 488.063 1454.73 488.106C1454.74 488.118 1454.75 488.146 1454.75 488.16C1454.75 488.174 1454.73 488.141 1454.72 488.129C1454.69 488.079 1454.67 488.025 1454.64 487.973C1454.63 487.952 1454.64 487.926 1454.63 487.903C1454.63 487.901 1454.63 487.898 1454.63 487.896C1454.63 487.889 1454.64 487.911 1454.64 487.919C1454.66 487.952 1454.67 487.987 1454.69 488.019C1454.7 488.035 1454.71 488.05 1454.71 488.067C1454.72 488.085 1454.69 488.041 1454.69 488.039C1454.67 487.992 1454.65 487.939 1454.64 487.889C1454.63 487.852 1454.68 487.953 1454.7 487.987C1454.7 487.998 1454.72 488.03 1454.71 488.018C1454.71 487.998 1454.7 487.979 1454.69 487.96C1454.67 487.92 1454.66 487.878 1454.65 487.838C1454.64 487.824 1454.64 487.812 1454.63 487.798C1454.63 487.786 1454.64 487.823 1454.64 487.836C1454.65 487.86 1454.66 487.884 1454.67 487.908" stroke="#38240C" stroke-width="0.1" stroke-linecap="square"/>
<path d="M1454.79 495.916C1454.78 495.918 1454.76 495.941 1454.74 495.953C1454.73 495.963 1454.72 495.973 1454.71 495.983C1454.69 496.011 1454.65 496.034 1454.61 496.053C1454.59 496.065 1454.56 496.086 1454.54 496.102C1454.53 496.108 1454.53 496.117 1454.52 496.123C1454.51 496.128 1454.51 496.127 1454.5 496.132C1454.48 496.152 1454.47 496.114 1454.47 496.095C1454.47 496.047 1454.47 495.996 1454.46 495.948C1454.45 495.847 1454.46 495.744 1454.46 495.643C1454.46 495.606 1454.47 495.609 1454.48 495.639C1454.49 495.67 1454.49 495.688 1454.53 495.666C1454.57 495.645 1454.62 495.585 1454.66 495.591C1454.7 495.595 1454.63 495.678 1454.62 495.683C1454.6 495.701 1454.54 495.747 1454.55 495.727C1454.59 495.692 1454.64 495.634 1454.68 495.617C1454.77 495.586 1454.66 495.744 1454.66 495.749C1454.63 495.798 1454.59 495.847 1454.55 495.887C1454.53 495.897 1454.52 495.907 1454.51 495.917C1454.51 495.921 1454.5 495.931 1454.5 495.926C1454.5 495.915 1454.54 495.878 1454.54 495.873C1454.59 495.824 1454.63 495.777 1454.69 495.737C1454.7 495.729 1454.79 495.649 1454.79 495.702C1454.79 495.761 1454.68 495.832 1454.64 495.853C1454.58 495.878 1454.62 495.826 1454.64 495.802C1454.64 495.795 1454.71 495.701 1454.73 495.725C1454.75 495.773 1454.69 495.839 1454.66 495.869C1454.62 495.919 1454.63 495.823 1454.63 495.794C1454.64 495.77 1454.65 495.749 1454.66 495.727C1454.66 495.726 1454.67 495.697 1454.67 495.708C1454.67 495.733 1454.66 495.765 1454.65 495.787C1454.63 495.829 1454.6 495.871 1454.58 495.911C1454.58 495.92 1454.56 495.961 1454.54 495.957C1454.51 495.95 1454.55 495.706 1454.56 495.677C1454.56 495.671 1454.6 495.54 1454.61 495.607C1454.61 495.65 1454.61 495.697 1454.61 495.74C1454.61 495.747 1454.61 495.768 1454.6 495.76C1454.6 495.71 1454.61 495.651 1454.62 495.602C1454.65 495.447 1454.71 495.291 1454.75 495.141C1454.77 495.082 1454.75 495.174 1454.74 495.191C1454.72 495.257 1454.71 495.153 1454.71 495.131C1454.71 495.025 1454.71 494.917 1454.74 494.815C1454.76 494.739 1454.79 494.666 1454.81 494.592C1454.81 494.588 1454.83 494.537 1454.83 494.561C1454.84 494.628 1454.83 494.699 1454.81 494.765C1454.81 494.788 1454.76 494.961 1454.73 494.871C1454.69 494.749 1454.68 494.612 1454.67 494.484C1454.65 494.33 1454.65 494.175 1454.65 494.02C1454.64 493.887 1454.64 493.751 1454.65 493.618C1454.66 493.487 1454.69 493.356 1454.72 493.227C1454.72 493.198 1454.73 493.169 1454.73 493.139C1454.73 493.133 1454.73 493.1 1454.74 493.094C1454.76 493.077 1454.74 493.143 1454.73 493.166C1454.73 493.186 1454.72 493.215 1454.71 493.231C1454.71 493.238 1454.71 493.216 1454.72 493.212C1454.74 493.204 1454.76 493.281 1454.76 493.294C1454.76 493.296 1454.77 493.316 1454.77 493.304C1454.77 493.219 1454.77 493.134 1454.77 493.049C1454.77 492.89 1454.79 492.732 1454.79 492.573C1454.79 492.546 1454.79 492.563 1454.79 492.58C1454.77 492.655 1454.74 492.728 1454.72 492.802C1454.71 492.845 1454.7 492.891 1454.68 492.934C1454.68 492.956 1454.67 492.958 1454.66 492.931C1454.66 492.69 1454.73 492.463 1454.81 492.238C1454.82 492.203 1454.84 492.171 1454.86 492.141C1454.88 492.115 1454.88 492.199 1454.88 492.23C1454.89 492.44 1454.87 492.641 1454.81 492.844C1454.81 492.858 1454.8 492.899 1454.78 492.906C1454.76 492.913 1454.79 492.831 1454.79 492.831C1454.82 492.753 1454.87 492.683 1454.93 492.623C1454.97 492.58 1455.02 492.522 1455.08 492.509C1455.14 492.496 1455.13 492.637 1455.12 492.657C1455.09 492.866 1454.97 493.056 1454.85 493.228C1454.78 493.334 1454.71 493.441 1454.64 493.544C1454.61 493.579 1454.58 493.617 1454.55 493.645C1454.53 493.665 1454.58 493.593 1454.6 493.57C1454.75 493.4 1454.91 493.233 1455.07 493.069C1455.13 493.001 1455.21 492.915 1455.29 492.861C1455.31 492.844 1455.41 492.77 1455.44 492.788C1455.46 492.802 1455.42 492.896 1455.42 492.9C1455.39 492.997 1455.34 493.087 1455.29 493.176C1455.21 493.318 1455.12 493.454 1455.01 493.579C1454.98 493.622 1454.94 493.678 1454.89 493.706C1454.86 493.723 1454.87 493.675 1454.88 493.662C1454.93 493.512 1455.02 493.373 1455.12 493.247C1455.13 493.236 1455.3 493.013 1455.31 493.031C1455.33 493.054 1455.24 493.2 1455.24 493.201C1455.18 493.326 1455.1 493.448 1455.02 493.569C1454.99 493.619 1454.94 493.692 1454.91 493.743C1454.89 493.76 1454.87 493.795 1454.85 493.809C1454.85 493.813 1454.84 493.802 1454.84 493.798C1454.84 493.761 1454.85 493.72 1454.86 493.685C1454.9 493.55 1454.96 493.422 1455.03 493.301C1455.06 493.248 1455.1 493.195 1455.13 493.143C1455.14 493.121 1455.16 493.084 1455.18 493.066C1455.19 493.059 1455.18 493.089 1455.17 493.099C1455.14 493.165 1455.1 493.23 1455.07 493.294C1454.98 493.439 1454.89 493.583 1454.79 493.72C1454.77 493.747 1454.75 493.784 1454.72 493.805C1454.71 493.81 1454.71 493.786 1454.72 493.777C1454.73 493.711 1454.76 493.646 1454.79 493.587C1454.92 493.313 1455.08 493.05 1455.25 492.795C1455.31 492.696 1455.38 492.592 1455.45 492.499C1455.46 492.487 1455.48 492.453 1455.49 492.466C1455.49 492.47 1455.48 492.475 1455.48 492.48C1455.47 492.511 1455.42 492.592 1455.41 492.611C1455.22 492.939 1455.02 493.258 1454.83 493.581C1454.78 493.656 1454.74 493.731 1454.69 493.806C1454.69 493.808 1454.64 493.888 1454.64 493.867C1454.65 493.78 1454.71 493.691 1454.75 493.616C1454.82 493.49 1454.89 493.367 1454.96 493.247C1454.97 493.241 1455.03 493.132 1455.04 493.176C1455.04 493.221 1455.01 493.275 1455 493.315C1454.95 493.449 1454.89 493.58 1454.84 493.712C1454.8 493.825 1454.75 493.937 1454.7 494.051C1454.69 494.093 1454.64 494.218 1454.65 494.174C1454.65 494.157 1454.66 494.141 1454.67 494.125C1454.71 494.027 1454.76 493.934 1454.81 493.842C1454.9 493.685 1455 493.53 1455.11 493.386C1455.12 493.376 1455.19 493.266 1455.17 493.328C1455.1 493.534 1454.98 493.725 1454.87 493.912C1454.76 494.118 1454.63 494.321 1454.52 494.529C1454.52 494.531 1454.52 494.535 1454.52 494.535C1454.5 494.54 1454.52 494.505 1454.53 494.491C1454.64 494.248 1454.78 494.02 1454.92 493.796C1455.01 493.669 1455.09 493.544 1455.18 493.426C1455.21 493.392 1455.24 493.35 1455.27 493.322C1455.29 493.304 1455.27 493.381 1455.26 493.409C1455.2 493.6 1455.11 493.775 1455.01 493.95C1454.92 494.124 1454.83 494.295 1454.73 494.466C1454.72 494.488 1454.7 494.532 1454.68 494.547C1454.67 494.551 1454.67 494.531 1454.67 494.523C1454.68 494.442 1454.72 494.362 1454.76 494.289C1454.87 494.054 1454.99 493.827 1455.13 493.605C1455.17 493.531 1455.22 493.457 1455.27 493.389C1455.32 493.324 1455.21 493.539 1455.17 493.611C1455.05 493.838 1454.92 494.058 1454.79 494.28C1454.75 494.351 1454.71 494.424 1454.67 494.495C1454.66 494.513 1454.63 494.567 1454.63 494.547C1454.66 494.402 1454.74 494.258 1454.81 494.128C1454.89 493.967 1454.98 493.813 1455.08 493.661C1455.08 493.655 1455.17 493.523 1455.18 493.532C1455.18 493.535 1455.18 493.541 1455.17 493.545C1455.17 493.578 1455.14 493.64 1455.13 493.664C1455.08 493.787 1455.03 493.907 1454.97 494.026C1454.9 494.173 1454.83 494.321 1454.75 494.464C1454.7 494.556 1454.65 494.647 1454.61 494.741C1454.6 494.761 1454.59 494.784 1454.58 494.804C1454.56 494.829 1454.57 494.746 1454.58 494.719C1454.63 494.499 1454.72 494.285 1454.81 494.08C1454.87 493.965 1454.93 493.852 1455 493.747C1455.01 493.726 1455.05 493.666 1455.04 493.732C1455.03 493.83 1454.99 493.923 1454.96 494.013C1454.93 494.083 1454.9 494.153 1454.87 494.223C1454.87 494.225 1454.87 494.217 1454.87 494.216C1454.87 494.192 1454.87 494.263 1454.88 494.287C1454.88 494.375 1454.9 494.479 1454.87 494.565C1454.86 494.602 1454.84 494.63 1454.84 494.67C1454.84 494.707 1454.83 494.746 1454.82 494.782C1454.81 494.842 1454.76 494.888 1454.72 494.932C1454.7 494.949 1454.68 494.98 1454.65 494.983C1454.59 494.992 1454.56 494.815 1454.56 494.779C1454.54 494.694 1454.53 494.609 1454.53 494.523C1454.53 494.49 1454.53 494.456 1454.53 494.423C1454.53 494.419 1454.53 494.414 1454.54 494.411C1454.54 494.403 1454.54 494.428 1454.54 494.437C1454.56 494.587 1454.58 494.739 1454.58 494.891C1454.58 494.898 1454.59 494.998 1454.59 494.997C1454.59 494.996 1454.59 495.029 1454.59 495.031C1454.59 495.06 1454.59 495.09 1454.59 495.119C1454.59 495.131 1454.59 495.147 1454.59 495.157C1454.6 495.173 1454.63 495.109 1454.63 495.106C1454.65 495.06 1454.67 495.015 1454.7 494.971C1454.7 494.963 1454.71 494.932 1454.72 494.927C1454.74 494.92 1454.72 494.963 1454.72 494.98C1454.7 495.043 1454.67 495.102 1454.65 495.162C1454.63 495.217 1454.6 495.274 1454.56 495.32C1454.55 495.332 1454.5 495.402 1454.5 495.368C1454.5 495.32 1454.52 495.27 1454.53 495.224C1454.54 495.177 1454.55 495.13 1454.57 495.084C1454.59 495.019 1454.56 495.223 1454.55 495.293C1454.55 495.319 1454.54 495.398 1454.54 495.372C1454.54 495.362 1454.57 495.294 1454.58 495.298C1454.59 495.305 1454.57 495.377 1454.57 495.384C1454.56 495.467 1454.53 495.548 1454.51 495.63C1454.51 495.653 1454.51 495.677 1454.5 495.699C1454.5 495.711 1454.52 495.637 1454.52 495.632C1454.56 495.536 1454.62 495.419 1454.72 495.37C1454.77 495.344 1454.76 495.407 1454.76 495.441C1454.75 495.471 1454.75 495.5 1454.74 495.529C1454.74 495.532 1454.74 495.566 1454.74 495.566C1454.73 495.557 1454.76 495.5 1454.76 495.491C1454.77 495.468 1454.77 495.446 1454.78 495.423C1454.78 495.423 1454.77 495.446 1454.77 495.451C1454.75 495.484 1454.73 495.515 1454.71 495.546C1454.7 495.57 1454.7 495.561 1454.71 495.53C1454.72 495.435 1454.75 495.342 1454.78 495.254C1454.8 495.209 1454.84 495.149 1454.84 495.099C1454.82 494.943 1454.81 494.789 1454.82 494.631C1454.83 494.404 1454.91 494.184 1454.97 493.965C1454.99 493.899 1455 493.833 1455.02 493.767C1455.02 493.762 1455.02 493.724 1455.03 493.727C1455.04 493.732 1455.03 493.705 1455.02 493.695C1454.93 493.423 1454.9 493.133 1454.87 492.85C1454.81 492.388 1454.79 491.92 1454.8 491.455C1454.8 491.417 1454.79 491.345 1454.84 491.353C1454.87 491.357 1454.85 491.424 1454.85 491.435C1454.82 491.595 1454.81 491.755 1454.79 491.916C1454.78 492.113 1454.76 492.311 1454.75 492.509C1454.75 492.597 1454.75 492.684 1454.74 492.772C1454.74 492.8 1454.74 492.838 1454.72 492.863" stroke="#38240C" stroke-width="0.1" stroke-linecap="square"/>
<defs>
<filter id="filter0_d_4_57" x="864.234" y="269.121" width="1292.34" height="1400.82" filterUnits="userSpaceOnUse" color-interpolation-filters="sRGB">
<feFlood flood-opacity="0" result="BackgroundImageFix"/>
<feColorMatrix in="SourceAlpha" type="matrix" values="0 0 0 0 0 0 0 0 0 0 0 0 0 0 0 0 0 0 127 0" result="hardAlpha"/>
<feOffset dy="50"/>
<feGaussianBlur stdDeviation="200"/>
<feComposite in2="hardAlpha" operator="out"/>
<feColorMatrix type="matrix" values="0 0 0 0 0 0 0 0 0 0 0 0 0 0 0 0 0 0 0.25 0"/>
<feBlend mode="normal" in2="BackgroundImageFix" result="effect1_dropShadow_4_57"/>
<feBlend mode="normal" in="SourceGraphic" in2="effect1_dropShadow_4_57" result="shape"/>
</filter>
<filter id="filter1_b_4_57" x="352.044" y="459.352" width="1122.03" height="1026.06" filterUnits="userSpaceOnUse" color-interpolation-filters="sRGB">
<feFlood flood-opacity="0" result="BackgroundImageFix"/>
<feGaussianBlur in="BackgroundImageFix" stdDeviation="2"/>
<feComposite in2="SourceAlpha" operator="in" result="effect1_backgroundBlur_4_57"/>
<feBlend mode="normal" in="SourceGraphic" in2="effect1_backgroundBlur_4_57" result="shape"/>
</filter>
<filter id="filter2_d_4_57" x="368.733" y="367.387" width="1090.04" height="256.953" filterUnits="userSpaceOnUse" color-interpolation-filters="sRGB">
<feFlood flood-opacity="0" result="BackgroundImageFix"/>
<feColorMatrix in="SourceAlpha" type="matrix" values="0 0 0 0 0 0 0 0 0 0 0 0 0 0 0 0 0 0 127 0" result="hardAlpha"/>
<feOffset dy="4"/>
<feGaussianBlur stdDeviation="2"/>
<feComposite in2="hardAlpha" operator="out"/>
<feColorMatrix type="matrix" values="0 0 0 0 0 0 0 0 0 0 0 0 0 0 0 0 0 0 0.25 0"/>
<feBlend mode="normal" in2="BackgroundImageFix" result="effect1_dropShadow_4_57"/>
<feBlend mode="normal" in="SourceGraphic" in2="effect1_dropShadow_4_57" result="shape"/>
</filter>
</defs>
</svg>
